<svg xmlns="http://www.w3.org/2000/svg" width="1200" height="540" viewBox="0 0 1200 540" role="img" aria-label="monkeyx, same seed same monkey">
  <defs>
    <filter id="shadow" x="-20%" y="-20%" width="140%" height="140%">
      <feDropShadow dx="0" dy="10" stdDeviation="16" flood-color="#16130F" flood-opacity="0.28"/>
    </filter>
  </defs>
  <rect width="1200" height="540" fill="#E5352B"/>
  <g filter="url(#shadow)" transform="translate(672 62) rotate(-6) scale(0.92)"><title id="mx2a122e72-t">monkey avatar for &quot;bob&quot;</title><desc id="mx2a122e72-d">deterministic monkey avatar generated by monkeyx from the seed &quot;bob&quot;</desc><defs><radialGradient id="mx2a122e72-fur" cx="40%" cy="26%" r="90%"><stop offset="0%" stop-color="#c8ccd6"/><stop offset="58%" stop-color="#b2b7c3"/><stop offset="100%" stop-color="#969caa"/></radialGradient><radialGradient id="mx2a122e72-torso" cx="44%" cy="22%" r="95%"><stop offset="0%" stop-color="#c8ccd6"/><stop offset="62%" stop-color="#b2b7c3"/><stop offset="100%" stop-color="#969caa"/></radialGradient><radialGradient id="mx2a122e72-limb" cx="42%" cy="28%" r="92%"><stop offset="0%" stop-color="#b2b7c3"/><stop offset="100%" stop-color="#7d8390"/></radialGradient><radialGradient id="mx2a122e72-face" cx="50%" cy="36%" r="82%"><stop offset="0%" stop-color="#f5f5f1"/><stop offset="68%" stop-color="#eaeae4"/><stop offset="100%" stop-color="#cfd0c8"/></radialGradient><radialGradient id="mx2a122e72-belly" cx="46%" cy="32%" r="85%"><stop offset="0%" stop-color="#f1f1ea"/><stop offset="100%" stop-color="#d9d9d3"/></radialGradient><radialGradient id="mx2a122e72-ear" cx="42%" cy="38%" r="85%"><stop offset="0%" stop-color="#b2b7c3"/><stop offset="100%" stop-color="#7d8390"/></radialGradient><radialGradient id="mx2a122e72-hair" cx="42%" cy="26%" r="90%"><stop offset="0%" stop-color="#434347"/><stop offset="100%" stop-color="#1b1b1f"/></radialGradient><radialGradient id="mx2a122e72-cloth" cx="45%" cy="25%" r="95%"><stop offset="0%" stop-color="#9d90cf"/><stop offset="55%" stop-color="#8a7bc6"/><stop offset="100%" stop-color="#6c609a"/></radialGradient></defs><rect x="0" y="0" width="256" height="256" rx="20" fill="#f1efe9"/><circle cx="21" cy="21" r="3.2" fill="#969caa" opacity="0.09"/><circle cx="57" cy="21" r="3.2" fill="#969caa" opacity="0.09"/><circle cx="93" cy="21" r="3.2" fill="#969caa" opacity="0.09"/><circle cx="129" cy="21" r="3.2" fill="#969caa" opacity="0.09"/><circle cx="165" cy="21" r="3.2" fill="#969caa" opacity="0.09"/><circle cx="201" cy="21" r="3.2" fill="#969caa" opacity="0.09"/><circle cx="237" cy="21" r="3.2" fill="#969caa" opacity="0.09"/><circle cx="21" cy="57" r="3.2" fill="#969caa" opacity="0.09"/><circle cx="57" cy="57" r="3.2" fill="#969caa" opacity="0.09"/><circle cx="93" cy="57" r="3.2" fill="#969caa" opacity="0.09"/><circle cx="129" cy="57" r="3.2" fill="#969caa" opacity="0.09"/><circle cx="165" cy="57" r="3.2" fill="#969caa" opacity="0.09"/><circle cx="201" cy="57" r="3.2" fill="#969caa" opacity="0.09"/><circle cx="237" cy="57" r="3.2" fill="#969caa" opacity="0.09"/><circle cx="21" cy="93" r="3.2" fill="#969caa" opacity="0.09"/><circle cx="57" cy="93" r="3.2" fill="#969caa" opacity="0.09"/><circle cx="93" cy="93" r="3.2" fill="#969caa" opacity="0.09"/><circle cx="129" cy="93" r="3.2" fill="#969caa" opacity="0.09"/><circle cx="165" cy="93" r="3.2" fill="#969caa" opacity="0.09"/><circle cx="201" cy="93" r="3.2" fill="#969caa" opacity="0.09"/><circle cx="237" cy="93" r="3.2" fill="#969caa" opacity="0.09"/><circle cx="21" cy="129" r="3.2" fill="#969caa" opacity="0.09"/><circle cx="57" cy="129" r="3.2" fill="#969caa" opacity="0.09"/><circle cx="93" cy="129" r="3.2" fill="#969caa" opacity="0.09"/><circle cx="129" cy="129" r="3.2" fill="#969caa" opacity="0.09"/><circle cx="165" cy="129" r="3.2" fill="#969caa" opacity="0.09"/><circle cx="201" cy="129" r="3.2" fill="#969caa" opacity="0.09"/><circle cx="237" cy="129" r="3.2" fill="#969caa" opacity="0.09"/><circle cx="21" cy="165" r="3.2" fill="#969caa" opacity="0.09"/><circle cx="57" cy="165" r="3.2" fill="#969caa" opacity="0.09"/><circle cx="93" cy="165" r="3.2" fill="#969caa" opacity="0.09"/><circle cx="129" cy="165" r="3.2" fill="#969caa" opacity="0.09"/><circle cx="165" cy="165" r="3.2" fill="#969caa" opacity="0.09"/><circle cx="201" cy="165" r="3.2" fill="#969caa" opacity="0.09"/><circle cx="237" cy="165" r="3.2" fill="#969caa" opacity="0.09"/><circle cx="21" cy="201" r="3.2" fill="#969caa" opacity="0.09"/><circle cx="57" cy="201" r="3.2" fill="#969caa" opacity="0.09"/><circle cx="93" cy="201" r="3.2" fill="#969caa" opacity="0.09"/><circle cx="129" cy="201" r="3.2" fill="#969caa" opacity="0.09"/><circle cx="165" cy="201" r="3.2" fill="#969caa" opacity="0.09"/><circle cx="201" cy="201" r="3.2" fill="#969caa" opacity="0.09"/><circle cx="237" cy="201" r="3.2" fill="#969caa" opacity="0.09"/><circle cx="21" cy="237" r="3.2" fill="#969caa" opacity="0.09"/><circle cx="57" cy="237" r="3.2" fill="#969caa" opacity="0.09"/><circle cx="93" cy="237" r="3.2" fill="#969caa" opacity="0.09"/><circle cx="129" cy="237" r="3.2" fill="#969caa" opacity="0.09"/><circle cx="165" cy="237" r="3.2" fill="#969caa" opacity="0.09"/><circle cx="201" cy="237" r="3.2" fill="#969caa" opacity="0.09"/><circle cx="237" cy="237" r="3.2" fill="#969caa" opacity="0.09"/><g><ellipse cx="128" cy="238" rx="54" ry="6" fill="#1f1b16" opacity="0.1"/><path d="M 56 54 Q 57.76 60.24 64 62 Q 57.76 63.76 56 70 Q 54.24 63.76 48 62 Q 54.24 60.24 56 54 Z" fill="#f0be4f"/><path d="M 198 39.5 Q 199.43 44.57 204.5 46 Q 199.43 47.43 198 52.5 Q 196.57 47.43 191.5 46 Q 196.57 44.57 198 39.5 Z" fill="#f0be4f"/><path d="M 184 95.5 Q 184.99 99.01 188.5 100 Q 184.99 100.99 184 104.5 Q 183.01 100.99 179.5 100 Q 183.01 99.01 184 95.5 Z" fill="#f0be4f"/><path d="M 151.53 196.85 Q 180.79 188.15 185.55 175.72 Q 190.31 163.3 187.28 153.88 L 184.25 144.46 A 2 2 0 0 1 180.39 145.54 M 180.39 145.54 Q 184.33 162.7 180.09 172.28 Q 175.85 181.85 162.48 184.5 L 149.11 187.15 A 5 5 0 0 1 151.53 196.85 Z" fill="#7d8390"/><ellipse cx="181.32" cy="142" rx="5.5" ry="6.5" fill="#7d8390" transform="rotate(-28 181.32 142)"/><path d="M 136.16 193.98 Q 145.69 217.62 147.43 222.35 L 149.18 227.08 A 7.25 7.25 0 0 1 163.06 222.92 M 163.06 222.92 Q 160.55 212.38 156.31 200.2 L 152.08 188.02 A 8.5 8.5 0 0 1 136.16 193.98 Z" fill="url(#mx2a122e72-limb)"/><path d="M 145.62 229 C 145.12 223 151.12 220.5 157.12 220.5 C 165.12 220.5 172.62 223.5 173.12 229 C 173.12 233.5 168.12 235.5 161.12 235.5 C 153.12 235.5 146.12 233.5 145.62 229 Z" fill="#7d8390"/><path d="M 160.12 221 Q 162.12 219.4 163.92 220.6" stroke="#2e2620" stroke-width="0.9" stroke-linecap="round" fill="none" opacity="0.3"/><path d="M 103.92 188.02 Q 95.45 212.38 94.19 217.65 L 92.94 222.92 A 7.25 7.25 0 0 1 106.82 227.08 M 106.82 227.08 Q 110.31 217.62 115.07 205.8 L 119.84 193.98 A 8.5 8.5 0 0 1 103.92 188.02 Z" fill="url(#mx2a122e72-limb)"/><path d="M 83.38 229 C 82.88 223 88.88 220.5 94.88 220.5 C 102.88 220.5 110.38 223.5 110.88 229 C 110.88 233.5 105.88 235.5 98.88 235.5 C 90.88 235.5 83.88 233.5 83.38 229 Z" fill="#7d8390"/><path d="M 97.88 221 Q 99.88 219.4 101.68 220.6" stroke="#2e2620" stroke-width="0.9" stroke-linecap="round" fill="none" opacity="0.3"/><path d="M 128 136 C 110.64 136 102.24 144.64 100 157.6 C 97 171.28 99 184.96 103.2 195.76 C 110.95 198.64 118.7 208 128 208 C 137.3 208 145.05 198.64 152.8 195.76 C 157 184.96 159 171.28 156 157.6 C 153.76 144.64 145.36 136 128 136 Z" fill="url(#mx2a122e72-torso)"/><ellipse cx="128" cy="187" rx="20.16" ry="21.5" fill="url(#mx2a122e72-belly)"/><path d="M 121 142 C 119.5 147 117.5 150 115.5 151 C 117 153 120.5 152.5 122.5 149 C 123.2 147 122.5 144 121 142 Z" fill="#f1f1ea" opacity="0.92"/><path d="M 135 142 C 136.5 147 138.5 150 140.5 151 C 139 153 135.5 152.5 133.5 149 C 132.8 147 133.5 144 135 142 Z" fill="#f1f1ea" opacity="0.92"/><path d="M 99.97 149.03 Q 93.64 171.9 93.04 183.74 L 92.43 195.59 A 4.75 4.75 0 0 1 101.89 196.41 M 101.89 196.41 Q 104.68 174.1 108.51 163.54 L 112.35 152.97 A 6.5 6.5 0 0 1 99.97 149.03 Z" fill="url(#mx2a122e72-limb)"/><path d="M 107.16 155 Q 102.66 172.5 99.16 194" fill="none" stroke="#7d8390" stroke-width="1.4" stroke-linecap="round" opacity="0.3"/><path d="M 91.16 198.94 C 89.47 202.62 89.47 207.68 92 210.26 C 95.39 212.46 100.05 212.1 102.16 209.06 C 103.85 206.58 104.11 203.08 102.75 200.78 C 104.7 199.86 105.12 196.64 103.01 196.18 C 101.32 195.72 99.2 196.82 97.93 198.3 C 96.24 196.64 92.85 196.64 91.16 198.94 Z" fill="#7d8390"/><path d="M 98.86 200 Q 99.66 204 98.66 209" fill="none" stroke="#b2b7c3" stroke-width="0.9" stroke-linecap="round" opacity="0.7"/><path d="M 154.71 155.3 Q 169.66 136.89 172.5 127.2 L 175.35 117.5 A 4.75 4.75 0 0 1 166.33 114.5 M 166.33 114.5 Q 160.02 131.11 152.49 138.9 L 144.97 146.7 A 6.5 6.5 0 0 1 154.71 155.3 Z" fill="url(#mx2a122e72-limb)"/><path d="M 148.84 155 Q 157.34 132.5 168.84 114" fill="none" stroke="#7d8390" stroke-width="1.4" stroke-linecap="round" opacity="0.3"/><path d="M 177.34 103.94 C 179.03 107.62 179.03 112.68 176.5 115.26 C 173.11 117.46 168.45 117.1 166.34 114.06 C 164.65 111.58 164.39 108.08 165.75 105.78 C 163.8 104.86 163.38 101.64 165.49 101.18 C 167.18 100.72 169.3 101.82 170.57 103.3 C 172.26 101.64 175.65 101.64 177.34 103.94 Z" fill="#7d8390"/><path d="M 169.64 105 Q 168.84 109 169.84 114" fill="none" stroke="#b2b7c3" stroke-width="0.9" stroke-linecap="round" opacity="0.7"/><path d="M 104 135 C 118 145 138 145 152 135 L 152 148 C 138 158 118 158 104 148 Z" fill="url(#mx2a122e72-cloth)"/><path d="M 104 141 C 118 150 138 150 152 141" fill="none" stroke="#564c7b" stroke-width="1.4" opacity="0.5"/><path d="M 136 148 L 145 148 L 146 180 L 137 180 Z" fill="url(#mx2a122e72-cloth)"/><path d="M 138.5 180 L 138.5 184" stroke="#564c7b" stroke-width="1.2" opacity="0.6"/><path d="M 141.5 180 L 141.5 185" stroke="#564c7b" stroke-width="1.2" opacity="0.6"/><path d="M 144.5 180 L 144.5 184" stroke="#564c7b" stroke-width="1.2" opacity="0.6"/><g><path d="M 83.5 65.8 C 65.45 57.25 55 70.55 59.75 87.65 C 63.55 99.05 78.75 100.95 89.2 92.4 C 93 84.8 91.1 71.5 83.5 65.8 Z" fill="url(#mx2a122e72-ear)"/><ellipse cx="73" cy="81" rx="9.88" ry="11.4" fill="#dfe0d8"/><ellipse cx="72.7" cy="81.8" rx="5.14" ry="5.7" fill="#d8d9d1" opacity="0.55"/><path d="M 172.5 65.8 C 190.55 57.25 201 70.55 196.25 87.65 C 192.45 99.05 177.25 100.95 166.8 92.4 C 163 84.8 164.9 71.5 172.5 65.8 Z" fill="url(#mx2a122e72-ear)"/><ellipse cx="183" cy="81" rx="9.88" ry="11.4" fill="#dfe0d8"/><ellipse cx="183.3" cy="81.8" rx="5.14" ry="5.7" fill="#d8d9d1" opacity="0.55"/><path d="M 128 37 C 160.24 37 180 52.96 180 71.44 C 180 90.76 165.44 109.24 154 118.48 C 143.6 121 112.4 121 102 118.48 C 90.56 109.24 76 90.76 76 71.44 C 76 52.96 95.76 37 128 37 Z" fill="url(#mx2a122e72-fur)"/><path d="M 128 37 C 96.8 37 79 47.44 79 66.2 C 86.84 68.2 94.68 62.2 100.56 58.2 C 108.4 52.2 118.2 52.2 126.04 57.2 C 131.92 53.2 139.76 53.2 145.64 58.2 C 153.48 52.2 163.28 52.2 169.16 62.2 C 174.06 64.2 176 68.2 177 66.2 C 177 47.44 159.2 37 128 37 Z" fill="#7d8390"/><ellipse cx="111.36" cy="50.44" rx="15.6" ry="5.88" fill="#ffffff" opacity="0.1"/><path d="M 104.24 65.91 C 113.15 59.92 122.06 62.77 128 68.48 C 133.94 62.77 142.85 59.92 151.76 65.91 C 161.66 73.62 163.64 87.9 158.69 99.9 C 156.05 111.32 144.5 119.32 128 119.32 C 111.5 119.32 99.95 111.32 97.31 99.9 C 92.36 87.9 95 73.62 104.24 65.91 Z" fill="url(#mx2a122e72-face)"/><path d="M 97.45 92.3 C 103.82 91.4 106.45 95.3 104.95 97.7 C 107.95 98.6 108.32 101.9 104.95 102.5 C 106.45 105.5 102.32 107.3 99.32 105.2 C 100.45 101.3 98.95 97.7 97.45 92.3 Z" fill="#b2b7c3"/><path d="M 158.56 92.3 C 152.18 91.4 149.56 95.3 151.06 97.7 C 148.06 98.6 147.68 101.9 151.06 102.5 C 149.56 105.5 153.68 107.3 156.68 105.2 C 155.56 101.3 157.06 97.7 158.56 92.3 Z" fill="#b2b7c3"/><g><circle cx="111.63" cy="85.11" r="4.8" fill="#494944"/><circle cx="110.03" cy="83.41" r="1.6" fill="#fdf6ea" opacity="0.9"/><circle cx="144.37" cy="85.11" r="4.8" fill="#494944"/><circle cx="142.77" cy="83.41" r="1.6" fill="#fdf6ea" opacity="0.9"/></g><path d="M 120.5 65.26 Q 112 58.76 103.5 65.26 Q 112 61.76 120.5 66.76 Z" fill="#7d8390"/><path d="M 135.5 68.76 Q 144 64.26 152.5 68.76 Q 144 67.26 135.5 70.16 Z" fill="#7d8390"/><path d="M 125 98.13 Q 128 96.13 131 98.13 Q 128 99.63 125 98.13 Z" fill="#cfd0c8" opacity="0.5"/><path d="M 128 105.18 C 127.15 102.63 122.9 101.78 122.9 98.38 C 122.9 95.83 125.45 94.98 128 97.53 C 130.55 94.98 133.1 95.83 133.1 98.38 C 133.1 101.78 128.85 102.63 128 105.18 Z" fill="#cfd0c8"/><ellipse cx="128" cy="110.9" rx="4.8" ry="5.6" fill="#2e2620" opacity="0.9"/><ellipse cx="128" cy="114.5" rx="2.8" ry="1.8" fill="#e0766e"/><path d="M 119 62.2 C 119 46.2 123 33 124 25 C 126 35 129 39 129 23 C 131 39 134 33 134 25 C 135 35 137 48.2 137 62.2 Z" fill="url(#mx2a122e72-hair)"/><path d="M 99.4 49 C 85.4 39 79.4 51 95.4 55 Z" fill="#8a7bc6"/><path d="M 99.4 49 C 113.4 39 119.4 51 103.4 55 Z" fill="#8a7bc6"/><circle cx="99.4" cy="50.5" r="4.2" fill="#63598f"/></g></g></g><g filter="url(#shadow)" transform="translate(1028 48) rotate(7) scale(0.9)"><title id="mx4ba560c0-t">monkey avatar for &quot;octocat&quot;</title><desc id="mx4ba560c0-d">deterministic monkey avatar generated by monkeyx from the seed &quot;octocat&quot;</desc><defs><radialGradient id="mx4ba560c0-fur" cx="40%" cy="26%" r="90%"><stop offset="0%" stop-color="#d49c9c"/><stop offset="58%" stop-color="#c48888"/><stop offset="100%" stop-color="#a96f6f"/></radialGradient><radialGradient id="mx4ba560c0-torso" cx="44%" cy="22%" r="95%"><stop offset="0%" stop-color="#d49c9c"/><stop offset="62%" stop-color="#c48888"/><stop offset="100%" stop-color="#a96f6f"/></radialGradient><radialGradient id="mx4ba560c0-limb" cx="42%" cy="28%" r="92%"><stop offset="0%" stop-color="#c48888"/><stop offset="100%" stop-color="#8a5858"/></radialGradient><radialGradient id="mx4ba560c0-face" cx="50%" cy="36%" r="82%"><stop offset="0%" stop-color="#f9eae7"/><stop offset="68%" stop-color="#f2dcd8"/><stop offset="100%" stop-color="#d9b4ad"/></radialGradient><radialGradient id="mx4ba560c0-belly" cx="46%" cy="32%" r="85%"><stop offset="0%" stop-color="#f8e9e5"/><stop offset="100%" stop-color="#dfd2ce"/></radialGradient><radialGradient id="mx4ba560c0-ear" cx="42%" cy="38%" r="85%"><stop offset="0%" stop-color="#c48888"/><stop offset="100%" stop-color="#8a5858"/></radialGradient><radialGradient id="mx4ba560c0-hair" cx="42%" cy="26%" r="90%"><stop offset="0%" stop-color="#c07c50"/><stop offset="100%" stop-color="#9b5528"/></radialGradient><radialGradient id="mx4ba560c0-cloth" cx="45%" cy="25%" r="95%"><stop offset="0%" stop-color="#f2b65b"/><stop offset="55%" stop-color="#efa83c"/><stop offset="100%" stop-color="#ba832f"/></radialGradient></defs><rect x="0" y="0" width="256" height="256" rx="20" fill="#f4eee3"/><g><ellipse cx="128" cy="238" rx="54" ry="6" fill="#1f1b16" opacity="0.1"/><path d="M 157.64 196.09 Q 182.89 184.89 186.98 173.69 L 191.07 162.49 A 4 4 0 0 1 183.65 159.51 M 183.65 159.51 Q 175.83 177.11 164.46 180.51 L 153.08 183.91 A 6.5 6.5 0 0 1 157.64 196.09 Z" fill="#8a5858"/><ellipse cx="188.36" cy="157" rx="8" ry="9" fill="#8a5858" transform="rotate(-18 188.36 157)"/><path d="M 138.59 186.44 Q 126.8 206.88 115.2 211.56 L 103.59 216.25 A 7.25 7.25 0 0 1 108.89 229.75 M 108.89 229.75 Q 136.72 219.12 144.82 207.34 L 152.93 195.56 A 8.5 8.5 0 0 1 138.59 186.44 Z" fill="url(#mx4ba560c0-limb)"/><path d="M 89.74 227 C 89.24 221 95.24 218.5 101.24 218.5 C 109.24 218.5 116.74 221.5 117.24 227 C 117.24 231.5 112.24 233.5 105.24 233.5 C 97.24 233.5 90.24 231.5 89.74 227 Z" fill="#8a5858"/><path d="M 104.24 219 Q 106.24 217.4 108.04 218.6" stroke="#2e2620" stroke-width="0.9" stroke-linecap="round" fill="none" opacity="0.3"/><path d="M 101.74 190.73 L 101.99 222.77 A 7.25 7.25 0 0 1 116.49 223.23 M 116.49 223.23 L 118.74 191.27 A 8.5 8.5 0 0 1 101.74 190.73 Z" fill="url(#mx4ba560c0-limb)"/><path d="M 93.74 227 C 93.24 221 99.24 218.5 105.24 218.5 C 113.24 218.5 120.74 221.5 121.24 227 C 121.24 231.5 116.24 233.5 109.24 233.5 C 101.24 233.5 94.24 231.5 93.74 227 Z" fill="#8a5858"/><path d="M 108.24 219 Q 110.24 217.4 112.04 218.6" stroke="#2e2620" stroke-width="0.9" stroke-linecap="round" fill="none" opacity="0.3"/><path d="M 128 130 C 106.92 130 96.72 139.12 94 152.8 C 91 167.24 93 181.68 97.6 193.08 C 107.1 196.12 116.6 206 128 206 C 139.4 206 148.9 196.12 158.4 193.08 C 163 181.68 165 167.24 162 152.8 C 159.28 139.12 149.08 130 128 130 Z" fill="url(#mx4ba560c0-torso)"/><ellipse cx="128" cy="181" rx="24.48" ry="21.5" fill="url(#mx4ba560c0-belly)"/><path d="M 121 136 C 119.5 141 117.5 144 115.5 145 C 117 147 120.5 146.5 122.5 143 C 123.2 141 122.5 138 121 136 Z" fill="#f8e9e5" opacity="0.92"/><path d="M 135 136 C 136.5 141 138.5 144 140.5 145 C 139 147 135.5 146.5 133.5 143 C 132.8 141 133.5 138 135 136 Z" fill="#f8e9e5" opacity="0.92"/><path d="M 95.11 146.27 Q 100.48 167.58 108.03 174.94 L 115.58 182.3 A 4.75 4.75 0 0 1 122.42 175.7 M 122.42 175.7 Q 110.48 162.42 109.17 153.07 L 107.85 143.73 A 6.5 6.5 0 0 1 95.11 146.27 Z" fill="url(#mx4ba560c0-limb)"/><path d="M 102.48 149 Q 103.48 161 121 177" fill="none" stroke="#8a5858" stroke-width="1.4" stroke-linecap="round" opacity="0.3"/><path d="M 117.5 176.94 C 115.81 180.62 115.81 185.68 118.34 188.26 C 121.73 190.46 126.39 190.1 128.5 187.06 C 130.19 184.58 130.45 181.08 129.09 178.78 C 131.04 177.86 131.46 174.64 129.35 174.18 C 127.66 173.72 125.54 174.82 124.27 176.3 C 122.58 174.64 119.19 174.64 117.5 176.94 Z" fill="#8a5858"/><path d="M 125.2 178 Q 126 182 125 187" fill="none" stroke="#c48888" stroke-width="0.9" stroke-linecap="round" opacity="0.7"/><path d="M 148.15 143.73 Q 145.52 162.42 139.55 169.06 L 133.58 175.7 A 4.75 4.75 0 0 1 140.42 182.3 M 140.42 182.3 Q 155.52 167.58 158.21 156.93 L 160.89 146.27 A 6.5 6.5 0 0 1 148.15 143.73 Z" fill="url(#mx4ba560c0-limb)"/><path d="M 153.52 149 Q 152.52 161 135 177" fill="none" stroke="#8a5858" stroke-width="1.4" stroke-linecap="round" opacity="0.3"/><path d="M 138.5 176.94 C 140.19 180.62 140.19 185.68 137.66 188.26 C 134.27 190.46 129.61 190.1 127.5 187.06 C 125.81 184.58 125.55 181.08 126.91 178.78 C 124.96 177.86 124.54 174.64 126.65 174.18 C 128.34 173.72 130.46 174.82 131.73 176.3 C 133.42 174.64 136.81 174.64 138.5 176.94 Z" fill="#8a5858"/><path d="M 130.8 178 Q 130 182 131 187" fill="none" stroke="#c48888" stroke-width="0.9" stroke-linecap="round" opacity="0.7"/><path d="M 91 145 C 91 133 108.76 129 115 132 C 123.45 137 132.55 137 141 132 C 147.24 129 169 133 169 145 C 171 164 170 191 172 203 Q 128 208 84 203 C 86 191 89 164 91 145 Z" fill="url(#mx4ba560c0-cloth)"/><path d="M 93.86 144.39 L 98.48 162.86 A 6.5 6.5 0 0 1 111.28 160.54 M 111.28 160.54 L 109.1 141.61 A 7.75 7.75 0 0 1 93.86 144.39 Z" fill="url(#mx4ba560c0-cloth)"/><path d="M 146.9 141.61 L 144.72 160.54 A 6.5 6.5 0 0 1 157.52 162.86 M 157.52 162.86 L 162.14 144.39 A 7.75 7.75 0 0 1 146.9 141.61 Z" fill="url(#mx4ba560c0-cloth)"/><path d="M 87 198 Q 128 204 169 198 L 169 205 Q 128 211 87 205 Z" fill="#b6802e"/><path d="M 115 132 C 123.45 137 132.55 137 141 132" fill="none" stroke="#946825" stroke-width="2" stroke-linecap="round" opacity="0.7"/><g><path d="M 76 82.4 C 64.6 77 58 85.4 61 96.2 C 63.4 103.4 73 104.6 79.6 99.2 C 82 94.4 80.8 86 76 82.4 Z" fill="url(#mx4ba560c0-ear)"/><ellipse cx="69" cy="92" rx="6.24" ry="7.2" fill="#e5b8b0"/><ellipse cx="68.7" cy="92.8" rx="3.24" ry="3.6" fill="#e0b6af" opacity="0.55"/><path d="M 180 82.4 C 191.4 77 198 85.4 195 96.2 C 192.6 103.4 183 104.6 176.4 99.2 C 174 94.4 175.2 86 180 82.4 Z" fill="url(#mx4ba560c0-ear)"/><ellipse cx="187" cy="92" rx="6.24" ry="7.2" fill="#e5b8b0"/><ellipse cx="187.3" cy="92.8" rx="3.24" ry="3.6" fill="#e0b6af" opacity="0.55"/><path d="M 128 37 C 160.24 37 180 52.96 180 71.44 C 180 90.76 165.44 109.24 154 118.48 C 143.6 121 112.4 121 102 118.48 C 90.56 109.24 76 90.76 76 71.44 C 76 52.96 95.76 37 128 37 Z" fill="url(#mx4ba560c0-fur)"/><path d="M 128 37 C 96.8 37 79 47.44 79 66.2 C 86.84 68.2 94.68 62.2 100.56 58.2 C 108.4 52.2 118.2 52.2 126.04 57.2 C 131.92 53.2 139.76 53.2 145.64 58.2 C 153.48 52.2 163.28 52.2 169.16 62.2 C 174.06 64.2 176 68.2 177 66.2 C 177 47.44 159.2 37 128 37 Z" fill="#8a5858"/><ellipse cx="111.36" cy="50.44" rx="15.6" ry="5.88" fill="#ffffff" opacity="0.1"/><path d="M 78 62.2 C 96.8 35 159.2 35 178 62.2 C 148.8 49 107.2 49 78 62.2 Z" fill="#8a5858" opacity="0.85"/><path d="M 104.24 65.91 C 113.15 59.92 122.06 62.77 128 68.48 C 133.94 62.77 142.85 59.92 151.76 65.91 C 161.66 73.62 163.64 87.9 158.69 99.9 C 156.05 111.32 144.5 119.32 128 119.32 C 111.5 119.32 99.95 111.32 97.31 99.9 C 92.36 87.9 95 73.62 104.24 65.91 Z" fill="url(#mx4ba560c0-face)"/><path d="M 97.45 92.3 C 103.82 91.4 106.45 95.3 104.95 97.7 C 107.95 98.6 108.32 101.9 104.95 102.5 C 106.45 105.5 102.32 107.3 99.32 105.2 C 100.45 101.3 98.95 97.7 97.45 92.3 Z" fill="#c48888"/><path d="M 158.56 92.3 C 152.18 91.4 149.56 95.3 151.06 97.7 C 148.06 98.6 147.68 101.9 151.06 102.5 C 149.56 105.5 153.68 107.3 156.68 105.2 C 155.56 101.3 157.06 97.7 158.56 92.3 Z" fill="#c48888"/><g><ellipse cx="112.65" cy="85.38" rx="11" ry="11" fill="#d9b4ad" opacity="0.28"/><ellipse cx="112.65" cy="84.38" rx="9.5" ry="10.5" fill="#fdf6ea"/><circle cx="112.65" cy="84.88" r="6.6" fill="#4c3028"/><circle cx="112.65" cy="84.88" r="3.17" fill="#201409"/><circle cx="110.45" cy="82.58" r="2" fill="#fdf6ea" opacity="0.95"/><circle cx="115.05" cy="87.58" r="0.9" fill="#fdf6ea" opacity="0.7"/><path d="M 103.62 79.97 Q 112.65 73.36 121.67 79.97" fill="none" stroke="#d9b4ad" stroke-width="1.6" stroke-linecap="round" opacity="0.55"/><path d="M 102.65 82.88 Q 112.65 79.88 122.65 82.88 L 122.65 75.38 L 102.65 75.38 Z" fill="#f2dcd8" opacity="0.96"/><path d="M 102.65 82.88 Q 112.65 79.88 122.65 82.88" fill="none" stroke="#d9b4ad" stroke-width="1.6" stroke-linecap="round" opacity="0.7"/><ellipse cx="143.35" cy="85.38" rx="11" ry="11" fill="#d9b4ad" opacity="0.28"/><ellipse cx="143.35" cy="84.38" rx="9.5" ry="10.5" fill="#fdf6ea"/><circle cx="143.35" cy="84.88" r="6.6" fill="#4c3028"/><circle cx="143.35" cy="84.88" r="3.17" fill="#201409"/><circle cx="141.15" cy="82.58" r="2" fill="#fdf6ea" opacity="0.95"/><circle cx="145.75" cy="87.58" r="0.9" fill="#fdf6ea" opacity="0.7"/><path d="M 134.33 79.97 Q 143.35 73.36 152.38 79.97" fill="none" stroke="#d9b4ad" stroke-width="1.6" stroke-linecap="round" opacity="0.55"/><path d="M 133.35 82.88 Q 143.35 79.88 153.35 82.88 L 153.35 75.38 L 133.35 75.38 Z" fill="#f2dcd8" opacity="0.96"/><path d="M 133.35 82.88 Q 143.35 79.88 153.35 82.88" fill="none" stroke="#d9b4ad" stroke-width="1.6" stroke-linecap="round" opacity="0.7"/></g><path d="M 120.5 65.16 Q 112 62.91 103.5 67.66 Q 112 65.71 120.5 66.46 Z" fill="#8a5858"/><path d="M 135.5 65.16 Q 144 62.91 152.5 67.66 Q 144 65.71 135.5 66.46 Z" fill="#8a5858"/><path d="M 125 98.29 Q 128 96.29 131 98.29 Q 128 99.79 125 98.29 Z" fill="#d9b4ad" opacity="0.5"/><path d="M 128 105.34 C 127.15 102.79 122.9 101.94 122.9 98.54 C 122.9 95.99 125.45 95.14 128 97.69 C 130.55 95.14 133.1 95.99 133.1 98.54 C 133.1 101.94 128.85 102.79 128 105.34 Z" fill="#d9b4ad"/><path d="M 120.5 112.74 Q 128 107.24 135.5 112.74 Q 128 109.64 120.5 112.74 Z" fill="#2e2620" opacity="0.85"/><path d="M 78 62.2 C 76 43 102 33 128 33 C 154 33 180 43 178 62.2 C 154 56.2 102 56.2 78 62.2 Z" fill="#efa83c"/><path d="M 130 59.2 C 164.4 57.2 196 62.2 195 69.2 C 194 73.2 159.2 69.2 132 66.2 Z" fill="#ac792b"/><circle cx="128" cy="34" r="2.6" fill="#ac792b"/></g><path d="M 192 50.9 C 190.7 47 184.2 45.7 184.2 40.5 C 184.2 36.6 188.1 35.3 192 39.2 C 195.9 35.3 199.8 36.6 199.8 40.5 C 199.8 45.7 193.3 47 192 50.9 Z" fill="#e05a5a"/><path d="M 204 65.85 C 203.05 63 198.3 62.05 198.3 58.25 C 198.3 55.4 201.15 54.45 204 57.3 C 206.85 54.45 209.7 55.4 209.7 58.25 C 209.7 62.05 204.95 63 204 65.85 Z" fill="#e05a5a"/></g></g><g filter="url(#shadow)" transform="translate(845 150) rotate(3) scale(0.98)"><title id="mxfc480e43-t">monkey avatar for &quot;alice&quot;</title><desc id="mxfc480e43-d">deterministic monkey avatar generated by monkeyx from the seed &quot;alice&quot;</desc><defs><radialGradient id="mxfc480e43-fur" cx="40%" cy="26%" r="90%"><stop offset="0%" stop-color="#858585"/><stop offset="58%" stop-color="#6e6e6e"/><stop offset="100%" stop-color="#545454"/></radialGradient><radialGradient id="mxfc480e43-torso" cx="44%" cy="22%" r="95%"><stop offset="0%" stop-color="#858585"/><stop offset="62%" stop-color="#6e6e6e"/><stop offset="100%" stop-color="#545454"/></radialGradient><radialGradient id="mxfc480e43-limb" cx="42%" cy="28%" r="92%"><stop offset="0%" stop-color="#6e6e6e"/><stop offset="100%" stop-color="#424242"/></radialGradient><radialGradient id="mxfc480e43-face" cx="50%" cy="36%" r="82%"><stop offset="0%" stop-color="#e8e8e8"/><stop offset="68%" stop-color="#d9d9d9"/><stop offset="100%" stop-color="#bcbcbc"/></radialGradient><radialGradient id="mxfc480e43-belly" cx="46%" cy="32%" r="85%"><stop offset="0%" stop-color="#ebebeb"/><stop offset="100%" stop-color="#d4d4d4"/></radialGradient><radialGradient id="mxfc480e43-ear" cx="42%" cy="38%" r="85%"><stop offset="0%" stop-color="#6e6e6e"/><stop offset="100%" stop-color="#424242"/></radialGradient><radialGradient id="mxfc480e43-hair" cx="42%" cy="26%" r="90%"><stop offset="0%" stop-color="#c07c50"/><stop offset="100%" stop-color="#9b5528"/></radialGradient><radialGradient id="mxfc480e43-cloth" cx="45%" cy="25%" r="95%"><stop offset="0%" stop-color="#e3a1c0"/><stop offset="55%" stop-color="#de8fb4"/><stop offset="100%" stop-color="#ad708c"/></radialGradient></defs><rect x="0" y="0" width="256" height="256" rx="20" fill="#f5eef4"/><circle cx="128" cy="112" r="62" fill="none" stroke="#545454" stroke-width="10" opacity="0.09"/><circle cx="128" cy="112" r="92" fill="none" stroke="#545454" stroke-width="10" opacity="0.07"/><g><ellipse cx="128" cy="238" rx="54" ry="6" fill="#1f1b16" opacity="0.1"/><path d="M 151.48 196.35 Q 182.85 186.76 186.01 172.42 Q 189.17 158.07 178.75 151.41 Q 168.32 144.75 161.79 151.34 L 155.26 157.94 A 1.5 1.5 0 0 1 157.38 160.06 M 157.38 160.06 Q 168.32 149.25 175.89 154.59 Q 183.47 159.93 180.63 170.58 Q 177.79 181.24 163.47 184.44 L 149.16 187.65 A 4.5 4.5 0 0 1 151.48 196.35 Z" fill="#424242"/><path d="M 133.64 193.57 L 136.89 223.48 A 7.25 7.25 0 0 1 151.35 222.52 M 151.35 222.52 L 150.6 192.43 A 8.5 8.5 0 0 1 133.64 193.57 Z" fill="url(#mxfc480e43-limb)"/><path d="M 133.62 227 C 133.12 221 139.12 218.5 145.12 218.5 C 153.12 218.5 160.62 221.5 161.12 227 C 161.12 231.5 156.12 233.5 149.12 233.5 C 141.12 233.5 134.12 231.5 133.62 227 Z" fill="#424242"/><path d="M 148.12 219 Q 150.12 217.4 151.92 218.6" stroke="#2e2620" stroke-width="0.9" stroke-linecap="round" fill="none" opacity="0.3"/><path d="M 105.4 192.43 L 104.65 222.52 A 7.25 7.25 0 0 1 119.11 223.48 M 119.11 223.48 L 122.36 193.57 A 8.5 8.5 0 0 1 105.4 192.43 Z" fill="url(#mxfc480e43-limb)"/><path d="M 95.38 227 C 94.88 221 100.88 218.5 106.88 218.5 C 114.88 218.5 122.38 221.5 122.88 227 C 122.88 231.5 117.88 233.5 110.88 233.5 C 102.88 233.5 95.88 231.5 95.38 227 Z" fill="#424242"/><path d="M 109.88 219 Q 111.88 217.4 113.68 218.6" stroke="#2e2620" stroke-width="0.9" stroke-linecap="round" fill="none" opacity="0.3"/><path d="M 128 136 C 110.64 136 102.24 144.64 100 157.6 C 97 171.28 99 184.96 103.2 195.76 C 110.95 198.64 118.7 208 128 208 C 137.3 208 145.05 198.64 152.8 195.76 C 157 184.96 159 171.28 156 157.6 C 153.76 144.64 145.36 136 128 136 Z" fill="url(#mxfc480e43-torso)"/><ellipse cx="128" cy="187" rx="20.16" ry="21.5" fill="url(#mxfc480e43-belly)"/><path d="M 121 142 C 119.5 147 117.5 150 115.5 151 C 117 153 120.5 152.5 122.5 149 C 123.2 147 122.5 144 121 142 Z" fill="#ebebeb" opacity="0.92"/><path d="M 135 142 C 136.5 147 138.5 150 140.5 151 C 139 153 135.5 152.5 133.5 149 C 132.8 147 133.5 144 135 142 Z" fill="#ebebeb" opacity="0.92"/><path d="M 101.56 155.6 Q 116.6 167.84 111.89 174.63 L 107.17 181.42 A 4.75 4.75 0 0 1 115.15 186.58 M 115.15 186.58 Q 127.72 166.16 119.24 156.28 L 110.76 146.4 A 6.5 6.5 0 0 1 101.56 155.6 Z" fill="url(#mxfc480e43-limb)"/><path d="M 107.16 155 Q 114.16 166.5 113.16 182" fill="none" stroke="#424242" stroke-width="1.4" stroke-linecap="round" opacity="0.3"/><path d="M 101.66 180.94 C 99.97 184.62 99.97 189.68 102.5 192.26 C 105.89 194.46 110.55 194.1 112.66 191.06 C 114.35 188.58 114.61 185.08 113.25 182.78 C 115.2 181.86 115.62 178.64 113.51 178.18 C 111.82 177.72 109.7 178.82 108.43 180.3 C 106.74 178.64 103.35 178.64 101.66 180.94 Z" fill="#424242"/><path d="M 109.36 182 Q 110.16 186 109.16 191" fill="none" stroke="#6e6e6e" stroke-width="0.9" stroke-linecap="round" opacity="0.7"/><path d="M 145.24 146.4 Q 128.28 166.16 134.57 176.37 L 140.85 186.58 A 4.75 4.75 0 0 1 148.83 181.42 M 148.83 181.42 Q 139.4 167.84 146.92 161.72 L 154.44 155.6 A 6.5 6.5 0 0 1 145.24 146.4 Z" fill="url(#mxfc480e43-limb)"/><path d="M 148.84 155 Q 141.84 166.5 142.84 182" fill="none" stroke="#424242" stroke-width="1.4" stroke-linecap="round" opacity="0.3"/><path d="M 154.34 180.94 C 156.03 184.62 156.03 189.68 153.5 192.26 C 150.11 194.46 145.45 194.1 143.34 191.06 C 141.65 188.58 141.39 185.08 142.75 182.78 C 140.8 181.86 140.38 178.64 142.49 178.18 C 144.18 177.72 146.3 178.82 147.57 180.3 C 149.26 178.64 152.65 178.64 154.34 180.94 Z" fill="#424242"/><path d="M 146.64 182 Q 145.84 186 146.84 191" fill="none" stroke="#6e6e6e" stroke-width="0.9" stroke-linecap="round" opacity="0.7"/><path d="M 112 156 L 111 202 Q 128 208 145 202 L 144 156 Q 128 150 112 156 Z" fill="url(#mxfc480e43-cloth)"/><path d="M 116 141 L 112 158 L 106 158 L 110 140 Z" fill="url(#mxfc480e43-cloth)"/><path d="M 140 141 L 144 158 L 150 158 L 146 140 Z" fill="url(#mxfc480e43-cloth)"/><circle cx="115" cy="158" r="2.2" fill="#e4a3c2"/><circle cx="141" cy="158" r="2.2" fill="#e4a3c2"/><path d="M 120 185 L 136 185 L 135 195 Q 128 197 121 195 Z" fill="#a96d89" opacity="0.8"/><g><path d="M 88.5 66.4 C 72.35 58.75 63 70.65 67.25 85.95 C 70.65 96.15 84.25 97.85 93.6 90.2 C 97 83.4 95.3 71.5 88.5 66.4 Z" fill="url(#mxfc480e43-ear)"/><circle cx="76" cy="77" r="3.4" fill="#c6c6c6"/><circle cx="83.5" cy="76" r="3" fill="#c6c6c6"/><circle cx="80" cy="84" r="3.2" fill="#c6c6c6"/><path d="M 167.5 66.4 C 183.65 58.75 193 70.65 188.75 85.95 C 185.35 96.15 171.75 97.85 162.4 90.2 C 159 83.4 160.7 71.5 167.5 66.4 Z" fill="url(#mxfc480e43-ear)"/><circle cx="172" cy="77" r="3.4" fill="#c6c6c6"/><circle cx="179.5" cy="76" r="3" fill="#c6c6c6"/><circle cx="176" cy="84" r="3.2" fill="#c6c6c6"/><path d="M 128 32 C 155.28 32 172 49.48 172 69.72 C 172 90.88 159.68 111.12 150 121.24 C 141.2 124 114.8 124 106 121.24 C 96.32 111.12 84 90.88 84 69.72 C 84 49.48 100.72 32 128 32 Z" fill="url(#mxfc480e43-fur)"/><path d="M 128 32 C 101.6 32 87 43.52 87 63.6 C 93.56 65.6 100.12 59.6 105.04 55.6 C 111.6 49.6 119.8 49.6 126.36 54.6 C 131.28 50.6 137.84 50.6 142.76 55.6 C 149.32 49.6 157.52 49.6 162.44 59.6 C 166.54 61.6 168 65.6 169 63.6 C 169 43.52 154.4 32 128 32 Z" fill="#424242"/><ellipse cx="113.92" cy="46.72" rx="13.2" ry="6.44" fill="#ffffff" opacity="0.1"/><circle cx="80" cy="80" r="8" fill="#424242" opacity="0.85"/><circle cx="176" cy="80" r="8" fill="#424242" opacity="0.85"/><path d="M 104.24 63.67 C 113.15 57.1 122.06 60.23 128 66.48 C 133.94 60.23 142.85 57.1 151.76 63.67 C 161.66 72.11 163.64 87.75 158.69 100.89 C 156.05 113.4 144.5 122.16 128 122.16 C 111.5 122.16 99.95 113.4 97.31 100.89 C 92.36 87.75 95 72.11 104.24 63.67 Z" fill="url(#mxfc480e43-face)"/><path d="M 97.45 92.91 C 103.82 92.01 106.45 95.91 104.95 98.31 C 107.95 99.21 108.32 102.51 104.95 103.11 C 106.45 106.11 102.32 107.91 99.32 105.81 C 100.45 101.91 98.95 98.31 97.45 92.91 Z" fill="#6e6e6e"/><path d="M 158.56 92.91 C 152.18 92.01 149.56 95.91 151.06 98.31 C 148.06 99.21 147.68 102.51 151.06 103.11 C 149.56 106.11 153.68 107.91 156.68 105.81 C 155.56 101.91 157.06 98.31 158.56 92.91 Z" fill="#6e6e6e"/><g><ellipse cx="113.01" cy="84.32" rx="11" ry="11" fill="#bcbcbc" opacity="0.28"/><ellipse cx="113.01" cy="83.32" rx="9.5" ry="10.5" fill="#fdf6ea"/><circle cx="113.01" cy="83.82" r="6.6" fill="#2e2e2e"/><circle cx="113.01" cy="83.82" r="3.17" fill="#201409"/><circle cx="110.81" cy="81.52" r="2" fill="#fdf6ea" opacity="0.95"/><circle cx="115.41" cy="86.52" r="0.9" fill="#fdf6ea" opacity="0.7"/><path d="M 103.98 78.91 Q 113.01 72.3 122.03 78.91" fill="none" stroke="#bcbcbc" stroke-width="1.6" stroke-linecap="round" opacity="0.55"/><path d="M 103.01 81.82 Q 113.01 78.82 123.01 81.82 L 123.01 74.32 L 103.01 74.32 Z" fill="#d9d9d9" opacity="0.96"/><path d="M 103.01 81.82 Q 113.01 78.82 123.01 81.82" fill="none" stroke="#bcbcbc" stroke-width="1.6" stroke-linecap="round" opacity="0.7"/><ellipse cx="142.99" cy="84.32" rx="11" ry="11" fill="#bcbcbc" opacity="0.28"/><ellipse cx="142.99" cy="83.32" rx="9.5" ry="10.5" fill="#fdf6ea"/><circle cx="142.99" cy="83.82" r="6.6" fill="#2e2e2e"/><circle cx="142.99" cy="83.82" r="3.17" fill="#201409"/><circle cx="140.79" cy="81.52" r="2" fill="#fdf6ea" opacity="0.95"/><circle cx="145.39" cy="86.52" r="0.9" fill="#fdf6ea" opacity="0.7"/><path d="M 133.97 78.91 Q 142.99 72.3 152.02 78.91" fill="none" stroke="#bcbcbc" stroke-width="1.6" stroke-linecap="round" opacity="0.55"/><path d="M 132.99 81.82 Q 142.99 78.82 152.99 81.82 L 152.99 74.32 L 132.99 74.32 Z" fill="#d9d9d9" opacity="0.96"/><path d="M 132.99 81.82 Q 142.99 78.82 152.99 81.82" fill="none" stroke="#bcbcbc" stroke-width="1.6" stroke-linecap="round" opacity="0.7"/></g><path d="M 120.5 63.55 Q 112 61.3 103.5 66.05 Q 112 64.1 120.5 64.85 Z" fill="#424242"/><path d="M 135.5 63.55 Q 144 61.3 152.5 66.05 Q 144 64.1 135.5 64.85 Z" fill="#424242"/><path d="M 122 96.77 Q 128 94.77 134 96.77 Q 128 98.27 122 96.77 Z" fill="#bcbcbc" opacity="0.5"/><ellipse cx="122.5" cy="100.77" rx="2.3" ry="2" fill="#2e2620" opacity="0.75"/><ellipse cx="133.5" cy="100.77" rx="2.3" ry="2" fill="#2e2620" opacity="0.75"/><path d="M 122.5 108.61 Q 128 105.61 133.5 108.61 Q 128 107.81 122.5 108.61 Z" fill="#2e2620" opacity="0.85"/><ellipse cx="128" cy="112.21" rx="2.6" ry="1.8" fill="#e0766e" opacity="0.85"/><path d="M 100.72 65.6 L 100.72 51.6 L 113 58.6 L 121.18 43.6 L 128 53.6 L 134.82 43.6 L 143 58.6 L 155.28 51.6 L 155.28 65.6 Z" fill="#e8b64c"/><rect x="100.72" y="61.1" width="54.56" height="4.5" rx="2" fill="#c2912f"/><circle cx="128" cy="63.1" r="1.8" fill="#de8fb4"/></g><circle cx="186" cy="72" r="5" fill="none" stroke="#8fb6d9" stroke-width="1.4" opacity="0.8"/><circle cx="196" cy="58" r="3.5" fill="none" stroke="#8fb6d9" stroke-width="1.4" opacity="0.65"/><circle cx="192" cy="44" r="2.5" fill="none" stroke="#8fb6d9" stroke-width="1.4" opacity="0.5"/></g></g>
  <text x="72" y="322" font-family="ui-sans-serif, system-ui, -apple-system, 'Segoe UI', Roboto, 'Helvetica Neue', Arial, sans-serif" font-size="118" font-weight="800" letter-spacing="-3.5" fill="#ffffff">monkeyx</text>
  <text x="76" y="386" font-family="ui-sans-serif, system-ui, -apple-system, 'Segoe UI', Roboto, 'Helvetica Neue', Arial, sans-serif" font-size="34" font-weight="500" fill="#FAF6F0">same seed. same monkey.</text>
  <text x="76" y="430" font-family="ui-sans-serif, system-ui, -apple-system, 'Segoe UI', Roboto, 'Helvetica Neue', Arial, sans-serif" font-size="16" fill="#FAF6F0" opacity="0.78">deterministic svg avatars, zero runtime dependencies</text>
</svg>